<?xml version="1.0" encoding="UTF-8" standalone="no"?>
<!-- Created with Inkscape (http://www.inkscape.org/) -->

<svg
   width="23.963282mm"
   height="45.441544mm"
   viewBox="0 0 23.963282 45.441544"
   version="1.1"
   id="svg1"
   xml:space="preserve"
   xmlns:xlink="http://www.w3.org/1999/xlink"
   xmlns="http://www.w3.org/2000/svg"
   xmlns:svg="http://www.w3.org/2000/svg"><defs
     id="defs1"><linearGradient
       id="linearGradient127"><stop
         style="stop-color:#ffbe3f;stop-opacity:1;"
         offset="0.45203146"
         id="stop128" /><stop
         style="stop-color:#ffe442;stop-opacity:1;"
         offset="0.55034167"
         id="stop129" /></linearGradient><linearGradient
       id="linearGradient93"><stop
         style="stop-color:#e6c300;stop-opacity:1;"
         offset="0.47965512"
         id="stop93" /><stop
         style="stop-color:#ffe442;stop-opacity:1;"
         offset="0.52139944"
         id="stop94" /></linearGradient><filter
       style="color-interpolation-filters:sRGB"
       id="filter112"
       x="-0.48067525"
       y="-0.14778537"
       width="1.9613505"
       height="1.357148"><feFlood
         result="flood"
         in="SourceGraphic"
         flood-opacity="0.674510"
         flood-color="rgb(0,0,0)"
         id="feFlood111" /><feGaussianBlur
         result="blur"
         in="SourceGraphic"
         stdDeviation="1.000000"
         id="feGaussianBlur111" /><feOffset
         result="offset"
         in="blur"
         dx="0.000000"
         dy="1.000000"
         id="feOffset111" /><feComposite
         result="comp1"
         operator="in"
         in="flood"
         in2="offset"
         id="feComposite111" /><feComposite
         result="comp2"
         operator="over"
         in="SourceGraphic"
         in2="comp1"
         id="feComposite112" /></filter><filter
       style="color-interpolation-filters:sRGB"
       id="filter140"
       x="-0.1358786"
       y="-0.1358786"
       width="1.2717572"
       height="1.3472453"><feFlood
         result="flood"
         in="SourceGraphic"
         flood-opacity="0.674510"
         flood-color="rgb(0,0,0)"
         id="feFlood139" /><feGaussianBlur
         result="blur"
         in="SourceGraphic"
         stdDeviation="0.300000"
         id="feGaussianBlur139" /><feOffset
         result="offset"
         in="blur"
         dx="0.000000"
         dy="0.400000"
         id="feOffset139" /><feComposite
         result="comp1"
         operator="in"
         in="flood"
         in2="offset"
         id="feComposite139" /><feComposite
         result="comp2"
         operator="over"
         in="SourceGraphic"
         in2="comp1"
         id="feComposite140" /></filter><linearGradient
       xlink:href="#linearGradient93"
       id="linearGradient148"
       gradientUnits="userSpaceOnUse"
       gradientTransform="matrix(0.6696406,0,0,0.6696406,58.128276,60.801919)"
       x1="63.828663"
       y1="141.75568"
       x2="78.639641"
       y2="141.75568" /><linearGradient
       xlink:href="#linearGradient93"
       id="linearGradient149"
       gradientUnits="userSpaceOnUse"
       gradientTransform="matrix(0.6696406,0,0,0.6696406,34.361932,59.778271)"
       x1="63.828663"
       y1="141.75568"
       x2="78.639641"
       y2="141.75568" /><linearGradient
       xlink:href="#linearGradient93"
       id="linearGradient150"
       gradientUnits="userSpaceOnUse"
       gradientTransform="matrix(0.6696406,0,0,0.6696406,58.128276,60.801919)"
       x1="63.828663"
       y1="141.75568"
       x2="78.639641"
       y2="141.75568" /><linearGradient
       xlink:href="#linearGradient93"
       id="linearGradient151"
       gradientUnits="userSpaceOnUse"
       gradientTransform="matrix(0.6696406,0,0,0.6696406,24.457936,72.892117)"
       x1="63.828663"
       y1="141.75568"
       x2="78.639641"
       y2="141.75568" /><linearGradient
       xlink:href="#linearGradient93"
       id="linearGradient152"
       gradientUnits="userSpaceOnUse"
       gradientTransform="matrix(0.6696406,0,0,0.6696406,34.361932,59.778271)"
       x1="63.828663"
       y1="141.75568"
       x2="78.639641"
       y2="141.75568" /><linearGradient
       xlink:href="#linearGradient93"
       id="linearGradient153"
       gradientUnits="userSpaceOnUse"
       gradientTransform="matrix(0.6696406,0,0,0.6696406,24.457936,72.892117)"
       x1="63.828663"
       y1="141.75568"
       x2="78.639641"
       y2="141.75568" /><linearGradient
       xlink:href="#linearGradient93"
       id="linearGradient154"
       gradientUnits="userSpaceOnUse"
       gradientTransform="matrix(0.6696406,0,0,0.6696406,24.457872,72.892179)"
       x1="63.828663"
       y1="141.75568"
       x2="78.639641"
       y2="141.75568" /><linearGradient
       xlink:href="#linearGradient93"
       id="linearGradient155"
       gradientUnits="userSpaceOnUse"
       gradientTransform="matrix(0.6696406,0,0,0.6696406,24.457872,72.892179)"
       x1="63.828663"
       y1="141.75568"
       x2="78.639641"
       y2="141.75568" /><radialGradient
       xlink:href="#linearGradient127"
       id="radialGradient155"
       gradientUnits="userSpaceOnUse"
       gradientTransform="translate(0.31272694,4.0637299)"
       cx="67.482384"
       cy="142.00912"
       fx="67.482384"
       fy="142.00912"
       r="2.6494238" /><linearGradient
       xlink:href="#linearGradient93"
       id="linearGradient160"
       gradientUnits="userSpaceOnUse"
       gradientTransform="matrix(0.6696406,0,0,0.6696406,58.128276,60.801919)"
       x1="63.828663"
       y1="141.75568"
       x2="78.639641"
       y2="141.75568" /><linearGradient
       xlink:href="#linearGradient93"
       id="linearGradient161"
       gradientUnits="userSpaceOnUse"
       gradientTransform="matrix(0.6696406,0,0,0.6696406,34.361932,59.778271)"
       x1="63.828663"
       y1="141.75568"
       x2="78.639641"
       y2="141.75568" /></defs><g
     id="layer1"
     transform="translate(-170.06513,-141.25899)"><g
       id="g148"
       transform="matrix(-1,0,0,1,255.8128,-0.62398563)"><path
         id="path141"
         style="fill:url(#linearGradient148);stroke:none;stroke-width:0.231027;stroke-linecap:round;stroke-linejoin:miter;stroke-dasharray:none;stroke-opacity:1;filter:url(#filter112)"
         d="m 108.31567,147.71911 c 0.021,0.003 0.0412,0.009 0.062,0.0124 -0.0208,-0.004 -0.041,-0.009 -0.062,-0.0124 z m 0.28732,0.0599 c 0.0316,0.008 0.0619,0.0199 0.093,0.0295 -0.0311,-0.01 -0.0615,-0.021 -0.093,-0.0295 z m 0.27337,0.0899 c 0.0365,0.0142 0.0717,0.0312 0.10749,0.047 -0.0358,-0.0158 -0.071,-0.0328 -0.10749,-0.047 z m -3.08095,0.015 v 2.20348 l -1.01338,0.17105 c -1.22458,0.20713 -2.24172,0.99975 -2.24172,2.24172 v 7.16288 c 0,1.24197 1.01714,2.44885 2.24172,2.24172 l 1.01338,-0.17157 v 2.19832 l -1.83555,0.17363 c -1.70375,0.16143 -3.08921,-1.37732 -3.08921,-3.0887 v -9.86968 c 0,-1.71138 1.38546,-2.92727 3.08921,-3.0887 z m 3.34605,0.10594 c 0.0348,0.0182 0.0683,0.0387 0.10232,0.0584 -0.034,-0.0197 -0.0675,-0.0402 -0.10232,-0.0584 z m 0.24908,0.14727 c 0.0328,0.0217 0.0642,0.0451 0.0961,0.0682 -0.0318,-0.023 -0.0634,-0.0465 -0.0961,-0.0682 z m 0.23616,0.17519 c 0.0299,0.0245 0.0588,0.0502 0.0879,0.076 -0.029,-0.0257 -0.058,-0.0514 -0.0879,-0.076 z m 0.21394,0.19378 c 0.0301,0.0299 0.059,0.0608 0.0879,0.092 -0.0288,-0.0312 -0.0578,-0.0621 -0.0879,-0.092 z m 0.19482,0.21343 c 0.0285,0.0342 0.0561,0.0689 0.0832,0.10438 -0.0271,-0.0354 -0.0548,-0.0702 -0.0832,-0.10438 z m 0.18138,0.24081 c 0.0236,0.0345 0.047,0.0689 0.0692,0.10439 -0.0222,-0.0354 -0.0457,-0.0699 -0.0692,-0.10439 z m 0.15555,0.25166 c 0.021,0.0377 0.042,0.0751 0.0615,0.11369 -0.0195,-0.0385 -0.0405,-0.076 -0.0615,-0.11369 z m 0.13384,0.26975 c 0.0174,0.0394 0.0358,0.0782 0.0517,0.11834 -0.0159,-0.0401 -0.0343,-0.079 -0.0517,-0.11834 z m 0.10956,0.28216 c 0.0136,0.0404 0.0283,0.0799 0.0403,0.12092 -0.012,-0.0409 -0.0268,-0.0806 -0.0403,-0.12092 z m 0.0827,0.28887 c 0.0103,0.0436 0.022,0.0866 0.0305,0.13074 -0.009,-0.0441 -0.0202,-0.0872 -0.0305,-0.13074 z m 0.0599,0.32659 c 0.005,0.0344 0.0111,0.0682 0.0145,0.10284 -0.003,-0.0346 -0.01,-0.0685 -0.0145,-0.10284 z"
         transform="matrix(-0.51409311,0,0,0.70907518,122.26635,47.813915)" /><path
         id="path142"
         style="fill:url(#linearGradient149);stroke:none;stroke-width:0.231027;stroke-linecap:round;stroke-linejoin:miter;stroke-dasharray:none;stroke-opacity:1;filter:url(#filter112)"
         d="m 84.248638,146.66904 c 1.556049,0.0423 2.773474,1.49566 2.773474,3.10007 v 9.86969 c 0,1.71138 -1.385471,2.92726 -3.089217,3.0887 l -1.903759,0.18035 v -2.19832 l 1.081587,-0.18293 c 1.224576,-0.20714 2.241724,-0.99976 2.241724,-2.24173 v -7.16235 c 0,-1.24197 -1.017148,-2.44886 -2.241724,-2.24172 l -1.081587,0.18293 v -2.20348 l 1.903759,-0.18035 c 0.106484,-0.0101 0.212007,-0.0137 0.315743,-0.0109 z"
         transform="matrix(-0.51409311,0,0,0.70907518,109.83694,40.400055)" /><path
         id="path143"
         style="fill:url(#linearGradient150);stroke:none;stroke-width:0.231027;stroke-linecap:round;stroke-linejoin:miter;stroke-dasharray:none;stroke-opacity:1;filter:url(#filter112)"
         d="m 108.31567,147.71911 c 0.021,0.003 0.0412,0.009 0.062,0.0124 -0.0208,-0.004 -0.041,-0.009 -0.062,-0.0124 z m 0.28732,0.0599 c 0.0316,0.008 0.0619,0.0199 0.093,0.0295 -0.0311,-0.01 -0.0615,-0.021 -0.093,-0.0295 z m 0.27337,0.0899 c 0.0365,0.0142 0.0717,0.0312 0.10749,0.047 -0.0358,-0.0158 -0.071,-0.0328 -0.10749,-0.047 z m -3.08095,0.015 v 2.20348 l -1.01338,0.17105 c -1.22458,0.20713 -2.24172,0.99975 -2.24172,2.24172 v 7.16288 c 0,1.24197 1.01714,2.44885 2.24172,2.24172 l 1.01338,-0.17157 v 2.19832 l -1.83555,0.17363 c -1.70375,0.16143 -3.08921,-1.37732 -3.08921,-3.0887 v -9.86968 c 0,-1.71138 1.38546,-2.92727 3.08921,-3.0887 z m 3.34605,0.10594 c 0.0348,0.0182 0.0683,0.0387 0.10232,0.0584 -0.034,-0.0197 -0.0675,-0.0402 -0.10232,-0.0584 z m 0.24908,0.14727 c 0.0328,0.0217 0.0642,0.0451 0.0961,0.0682 -0.0318,-0.023 -0.0634,-0.0465 -0.0961,-0.0682 z m 0.23616,0.17519 c 0.0299,0.0245 0.0588,0.0502 0.0879,0.076 -0.029,-0.0257 -0.058,-0.0514 -0.0879,-0.076 z m 0.21394,0.19378 c 0.0301,0.0299 0.059,0.0608 0.0879,0.092 -0.0288,-0.0312 -0.0578,-0.0621 -0.0879,-0.092 z m 0.19482,0.21343 c 0.0285,0.0342 0.0561,0.0689 0.0832,0.10438 -0.0271,-0.0354 -0.0548,-0.0702 -0.0832,-0.10438 z m 0.18138,0.24081 c 0.0236,0.0345 0.047,0.0689 0.0692,0.10439 -0.0222,-0.0354 -0.0457,-0.0699 -0.0692,-0.10439 z m 0.15555,0.25166 c 0.021,0.0377 0.042,0.0751 0.0615,0.11369 -0.0195,-0.0385 -0.0405,-0.076 -0.0615,-0.11369 z m 0.13384,0.26975 c 0.0174,0.0394 0.0358,0.0782 0.0517,0.11834 -0.0159,-0.0401 -0.0343,-0.079 -0.0517,-0.11834 z m 0.10956,0.28216 c 0.0136,0.0404 0.0283,0.0799 0.0403,0.12092 -0.012,-0.0409 -0.0268,-0.0806 -0.0403,-0.12092 z m 0.0827,0.28887 c 0.0103,0.0436 0.022,0.0866 0.0305,0.13074 -0.009,-0.0441 -0.0202,-0.0872 -0.0305,-0.13074 z m 0.0599,0.32659 c 0.005,0.0344 0.0111,0.0682 0.0145,0.10284 -0.003,-0.0346 -0.01,-0.0685 -0.0145,-0.10284 z"
         transform="matrix(-0.51409311,0,0,0.70907518,122.05502,39.674167)" /><path
         id="path144"
         style="fill:url(#linearGradient151);stroke:none;stroke-width:0.231027;stroke-linecap:round;stroke-linejoin:miter;stroke-dasharray:none;stroke-opacity:1;filter:url(#filter112)"
         d="m 74.64533,159.80931 c 0.021,0.003 0.0412,0.009 0.062,0.0124 -0.0208,-0.004 -0.041,-0.009 -0.062,-0.0124 z m 0.28732,0.0599 c 0.0316,0.008 0.0619,0.0199 0.093,0.0295 -0.0311,-0.01 -0.0615,-0.021 -0.093,-0.0295 z m 0.27337,0.0899 c 0.0365,0.0142 0.0717,0.0312 0.10749,0.047 -0.0358,-0.0158 -0.071,-0.0328 -0.10749,-0.047 z m -3.08095,0.015 v 2.20348 l -1.01338,0.17105 c -1.22458,0.20713 -2.24172,0.99975 -2.24172,2.24172 v 7.16288 c 0,1.24197 1.01714,2.44885 2.24172,2.24172 l 1.01338,-0.17157 v 2.19832 l -1.83555,0.17363 c -1.70375,0.16143 -3.08921,-1.37732 -3.08921,-3.0887 v -9.86968 c 0,-1.71138 1.38546,-2.92727 3.08921,-3.0887 z m 3.34605,0.10594 c 0.0348,0.0182 0.0683,0.0387 0.10232,0.0584 -0.034,-0.0197 -0.0675,-0.0402 -0.10232,-0.0584 z m 0.24908,0.14727 c 0.0328,0.0217 0.0642,0.0451 0.0961,0.0682 -0.0318,-0.023 -0.0634,-0.0465 -0.0961,-0.0682 z m 0.23616,0.17519 c 0.0299,0.0245 0.0588,0.0502 0.0879,0.076 -0.029,-0.0257 -0.058,-0.0514 -0.0879,-0.076 z m 0.21394,0.19378 c 0.0301,0.0299 0.059,0.0608 0.0879,0.092 -0.0288,-0.0312 -0.0578,-0.0621 -0.0879,-0.092 z m 0.19482,0.21343 c 0.0285,0.0342 0.0561,0.0689 0.0832,0.10438 -0.0271,-0.0354 -0.0548,-0.0702 -0.0832,-0.10438 z m 0.18138,0.24081 c 0.0236,0.0345 0.047,0.0689 0.0692,0.10439 -0.0222,-0.0354 -0.0457,-0.0699 -0.0692,-0.10439 z m 0.15555,0.25166 c 0.021,0.0377 0.042,0.0751 0.0615,0.11369 -0.0195,-0.0385 -0.0405,-0.076 -0.0615,-0.11369 z m 0.13384,0.26975 c 0.0174,0.0394 0.0358,0.0782 0.0517,0.11834 -0.0159,-0.0401 -0.0343,-0.079 -0.0517,-0.11834 z m 0.10956,0.28216 c 0.0136,0.0404 0.0283,0.0799 0.0403,0.12092 -0.012,-0.0409 -0.0268,-0.0806 -0.0403,-0.12092 z m 0.0827,0.28887 c 0.0103,0.0436 0.022,0.0866 0.0305,0.13074 -0.009,-0.0441 -0.0202,-0.0872 -0.0305,-0.13074 z m 0.0599,0.32659 c 0.005,0.0344 0.0111,0.0682 0.0145,0.10284 -0.003,-0.0346 -0.01,-0.0685 -0.0145,-0.10284 z"
         transform="matrix(0.44521769,-0.25704656,0.35453759,0.61407712,-21.814495,81.197277)" /><path
         id="path145"
         style="fill:url(#linearGradient152);stroke:none;stroke-width:0.231027;stroke-linecap:round;stroke-linejoin:miter;stroke-dasharray:none;stroke-opacity:1;filter:url(#filter112)"
         d="m 84.248638,146.66904 c 1.556049,0.0423 2.773474,1.49566 2.773474,3.10007 v 9.86969 c 0,1.71138 -1.385471,2.92726 -3.089217,3.0887 l -1.903759,0.18035 v -2.19832 l 1.081587,-0.18293 c 1.224576,-0.20714 2.241724,-0.99976 2.241724,-2.24173 v -7.16235 c 0,-1.24197 -1.017148,-2.44886 -2.241724,-2.24172 l -1.081587,0.18293 v -2.20348 l 1.903759,-0.18035 c 0.106484,-0.0101 0.212007,-0.0137 0.315743,-0.0109 z"
         transform="matrix(-0.51409311,0,0,0.70907518,110.04828,48.539802)" /><path
         id="path146"
         style="fill:url(#linearGradient153);stroke:none;stroke-width:0.231027;stroke-linecap:round;stroke-linejoin:miter;stroke-dasharray:none;stroke-opacity:1;filter:url(#filter112)"
         d="m 74.64533,159.80931 c 0.021,0.003 0.0412,0.009 0.062,0.0124 -0.0208,-0.004 -0.041,-0.009 -0.062,-0.0124 z m 0.28732,0.0599 c 0.0316,0.008 0.0619,0.0199 0.093,0.0295 -0.0311,-0.01 -0.0615,-0.021 -0.093,-0.0295 z m 0.27337,0.0899 c 0.0365,0.0142 0.0717,0.0312 0.10749,0.047 -0.0358,-0.0158 -0.071,-0.0328 -0.10749,-0.047 z m -3.08095,0.015 v 2.20348 l -1.01338,0.17105 c -1.22458,0.20713 -2.24172,0.99975 -2.24172,2.24172 v 7.16288 c 0,1.24197 1.01714,2.44885 2.24172,2.24172 l 1.01338,-0.17157 v 2.19832 l -1.83555,0.17363 c -1.70375,0.16143 -3.08921,-1.37732 -3.08921,-3.0887 v -9.86968 c 0,-1.71138 1.38546,-2.92727 3.08921,-3.0887 z m 3.34605,0.10594 c 0.0348,0.0182 0.0683,0.0387 0.10232,0.0584 -0.034,-0.0197 -0.0675,-0.0402 -0.10232,-0.0584 z m 0.24908,0.14727 c 0.0328,0.0217 0.0642,0.0451 0.0961,0.0682 -0.0318,-0.023 -0.0634,-0.0465 -0.0961,-0.0682 z m 0.23616,0.17519 c 0.0299,0.0245 0.0588,0.0502 0.0879,0.076 -0.029,-0.0257 -0.058,-0.0514 -0.0879,-0.076 z m 0.21394,0.19378 c 0.0301,0.0299 0.059,0.0608 0.0879,0.092 -0.0288,-0.0312 -0.0578,-0.0621 -0.0879,-0.092 z m 0.19482,0.21343 c 0.0285,0.0342 0.0561,0.0689 0.0832,0.10438 -0.0271,-0.0354 -0.0548,-0.0702 -0.0832,-0.10438 z m 0.18138,0.24081 c 0.0236,0.0345 0.047,0.0689 0.0692,0.10439 -0.0222,-0.0354 -0.0457,-0.0699 -0.0692,-0.10439 z m 0.15555,0.25166 c 0.021,0.0377 0.042,0.0751 0.0615,0.11369 -0.0195,-0.0385 -0.0405,-0.076 -0.0615,-0.11369 z m 0.13384,0.26975 c 0.0174,0.0394 0.0358,0.0782 0.0517,0.11834 -0.0159,-0.0401 -0.0343,-0.079 -0.0517,-0.11834 z m 0.10956,0.28216 c 0.0136,0.0404 0.0283,0.0799 0.0403,0.12092 -0.012,-0.0409 -0.0268,-0.0806 -0.0403,-0.12092 z m 0.0827,0.28887 c 0.0103,0.0436 0.022,0.0866 0.0305,0.13074 -0.009,-0.0441 -0.0202,-0.0872 -0.0305,-0.13074 z m 0.0599,0.32659 c 0.005,0.0344 0.0111,0.0682 0.0145,0.10284 -0.003,-0.0346 -0.01,-0.0685 -0.0145,-0.10284 z"
         transform="matrix(-0.25885753,0.44416721,0.61262821,0.35703542,-8.8411043,79.328283)" /><path
         id="path147"
         style="fill:url(#linearGradient154);stroke:none;stroke-width:0.231027;stroke-linecap:round;stroke-linejoin:miter;stroke-dasharray:none;stroke-opacity:1;filter:url(#filter112)"
         d="m 74.344578,159.78295 c 1.556049,0.0423 2.773474,1.49566 2.773474,3.10007 v 9.86969 c 0,1.71138 -1.385471,2.92726 -3.089217,3.0887 l -1.903759,0.18035 v -2.19832 l 1.081587,-0.18293 c 1.224576,-0.20714 2.241724,-0.99976 2.241724,-2.24173 v -7.16235 c 0,-1.24197 -1.017148,-2.44886 -2.241724,-2.24172 l -1.081587,0.18293 v -2.20348 l 1.903759,-0.18035 c 0.106484,-0.0101 0.212007,-0.0137 0.315743,-0.0109 z"
         transform="matrix(0.44521769,-0.25704656,0.35453759,0.61407712,-21.814495,81.197277)" /><path
         id="path159"
         style="fill:url(#linearGradient160);stroke:none;stroke-width:0.231027;stroke-linecap:round;stroke-linejoin:miter;stroke-dasharray:none;stroke-opacity:1;filter:url(#filter112)"
         d="m 108.31567,147.71911 c 0.021,0.003 0.0412,0.009 0.062,0.0124 -0.0208,-0.004 -0.041,-0.009 -0.062,-0.0124 z m 0.28732,0.0599 c 0.0316,0.008 0.0619,0.0199 0.093,0.0295 -0.0311,-0.01 -0.0615,-0.021 -0.093,-0.0295 z m 0.27337,0.0899 c 0.0365,0.0142 0.0717,0.0312 0.10749,0.047 -0.0358,-0.0158 -0.071,-0.0328 -0.10749,-0.047 z m -3.08095,0.015 v 2.20348 l -1.01338,0.17105 c -1.22458,0.20713 -2.24172,0.99975 -2.24172,2.24172 v 7.16288 c 0,1.24197 1.01714,2.44885 2.24172,2.24172 l 1.01338,-0.17157 v 2.19832 l -1.83555,0.17363 c -1.70375,0.16143 -3.08921,-1.37732 -3.08921,-3.0887 v -9.86968 c 0,-1.71138 1.38546,-2.92727 3.08921,-3.0887 z m 3.34605,0.10594 c 0.0348,0.0182 0.0683,0.0387 0.10232,0.0584 -0.034,-0.0197 -0.0675,-0.0402 -0.10232,-0.0584 z m 0.24908,0.14727 c 0.0328,0.0217 0.0642,0.0451 0.0961,0.0682 -0.0318,-0.023 -0.0634,-0.0465 -0.0961,-0.0682 z m 0.23616,0.17519 c 0.0299,0.0245 0.0588,0.0502 0.0879,0.076 -0.029,-0.0257 -0.058,-0.0514 -0.0879,-0.076 z m 0.21394,0.19378 c 0.0301,0.0299 0.059,0.0608 0.0879,0.092 -0.0288,-0.0312 -0.0578,-0.0621 -0.0879,-0.092 z m 0.19482,0.21343 c 0.0285,0.0342 0.0561,0.0689 0.0832,0.10438 -0.0271,-0.0354 -0.0548,-0.0702 -0.0832,-0.10438 z m 0.18138,0.24081 c 0.0236,0.0345 0.047,0.0689 0.0692,0.10439 -0.0222,-0.0354 -0.0457,-0.0699 -0.0692,-0.10439 z m 0.15555,0.25166 c 0.021,0.0377 0.042,0.0751 0.0615,0.11369 -0.0195,-0.0385 -0.0405,-0.076 -0.0615,-0.11369 z m 0.13384,0.26975 c 0.0174,0.0394 0.0358,0.0782 0.0517,0.11834 -0.0159,-0.0401 -0.0343,-0.079 -0.0517,-0.11834 z m 0.10956,0.28216 c 0.0136,0.0404 0.0283,0.0799 0.0403,0.12092 -0.012,-0.0409 -0.0268,-0.0806 -0.0403,-0.12092 z m 0.0827,0.28887 c 0.0103,0.0436 0.022,0.0866 0.0305,0.13074 -0.009,-0.0441 -0.0202,-0.0872 -0.0305,-0.13074 z m 0.0599,0.32659 c 0.005,0.0344 0.0111,0.0682 0.0145,0.10284 -0.003,-0.0346 -0.01,-0.0685 -0.0145,-0.10284 z"
         transform="matrix(0.74844119,0,0,0.76723732,-0.72173249,58.774)" /><path
         id="path148"
         style="fill:url(#linearGradient155);stroke:none;stroke-width:0.231027;stroke-linecap:round;stroke-linejoin:miter;stroke-dasharray:none;stroke-opacity:1;filter:url(#filter112)"
         d="m 74.344578,159.78295 c 1.556049,0.0423 2.773474,1.49566 2.773474,3.10007 v 9.86969 c 0,1.71138 -1.385471,2.92726 -3.089217,3.0887 l -1.903759,0.18035 v -2.19832 l 1.081587,-0.18293 c 1.224576,-0.20714 2.241724,-0.99976 2.241724,-2.24173 v -7.16235 c 0,-1.24197 -1.017148,-2.44886 -2.241724,-2.24172 l -1.081587,0.18293 v -2.20348 l 1.903759,-0.18035 c 0.106484,-0.0101 0.212007,-0.0137 0.315743,-0.0109 z"
         transform="matrix(-0.25885753,0.44416721,0.61262821,0.35703542,-8.8411043,79.328283)" /><circle
         style="fill:url(#radialGradient155);stroke:none;stroke-width:0.345001;stroke-linecap:round;stroke-linejoin:miter;stroke-dasharray:none;stroke-opacity:1;filter:url(#filter140)"
         id="circle148"
         cx="67.795113"
         cy="146.07286"
         r="2.6494238"
         transform="matrix(1.1396941,0,0,1.1396941,-9.5599289,-20.755298)" /><path
         id="path158"
         style="fill:url(#linearGradient161);stroke:none;stroke-width:0.231027;stroke-linecap:round;stroke-linejoin:miter;stroke-dasharray:none;stroke-opacity:1;filter:url(#filter112)"
         d="m 84.248638,146.66904 c 1.556049,0.0423 2.773474,1.49566 2.773474,3.10007 v 9.86969 c 0,1.71138 -1.385471,2.92726 -3.089217,3.0887 l -1.903759,0.18035 v -2.19832 l 1.081587,-0.18293 c 1.224576,-0.20714 2.241724,-0.99976 2.241724,-2.24173 v -7.16235 c 0,-1.24197 -1.017148,-2.44886 -2.241724,-2.24172 l -1.081587,0.18293 v -2.20348 l 1.903759,-0.18035 c 0.106484,-0.0101 0.212007,-0.0137 0.315743,-0.0109 z"
         transform="matrix(0.74844119,0,0,0.76723732,17.065938,59.559426)" /></g></g></svg>
