<?xml version="1.0" encoding="UTF-8" standalone="no"?>
<!-- Created with Inkscape (http://www.inkscape.org/) -->

<svg
   width="33.163689mm"
   height="32.196922mm"
   viewBox="0 0 33.163689 32.196922"
   version="1.1"
   id="svg1"
   xml:space="preserve"
   xmlns="http://www.w3.org/2000/svg"
   xmlns:svg="http://www.w3.org/2000/svg"><defs
     id="defs1" /><g
     id="layer1"
     transform="translate(-170.46668,-119.32308)"><g
       id="g188"><path
         id="path87"
         style="fill:#333344;fill-opacity:1;stroke:#ffe442;stroke-width:0.417467;stroke-linecap:round;stroke-linejoin:round;stroke-opacity:1"
         d="m 201.53647,134.87868 v 12.71188 h -8.70748 v 3.72071 h -12.71188 v -12.71189 h 8.70799 v -3.7207 z" /><path
         id="path88"
         style="fill:#853b92;fill-opacity:1;stroke:#f2a705;stroke-width:0.417467;stroke-linecap:round;stroke-linejoin:round;stroke-opacity:1"
         d="m 197.06543,119.53181 v 6.35568 h 6.3562 v 12.71189 h -12.71189 v -6.3562 h -6.3562 v -12.71137 z" /><rect
         style="fill:#853b92;fill-opacity:1;stroke:#f2a705;stroke-width:0.417467;stroke-linecap:round;stroke-linejoin:round;stroke-opacity:1"
         id="rect88"
         width="12.71183"
         height="12.71183"
         x="128.71432"
         y="171.50471"
         transform="matrix(0,1,1,0,0,0)" /><rect
         style="fill:#853b92;fill-opacity:1;stroke:#f2a705;stroke-width:0.350077;stroke-linecap:round;stroke-linejoin:round;stroke-opacity:1"
         id="rect89"
         width="10.659821"
         height="10.659821"
         x="130.60847"
         y="180.08342"
         transform="matrix(0,1,1,0,0,0)" /><rect
         style="fill:#853b92;fill-opacity:1;stroke:#f2a705;stroke-width:0.245022;stroke-linecap:round;stroke-linejoin:round;stroke-opacity:1"
         id="rect90"
         width="7.4608884"
         height="7.4608884"
         x="119.50793"
         y="174.75359"
         transform="matrix(0,1,1,0,0,0)" /><rect
         style="fill:#333344;fill-opacity:1;stroke:#ffe442;stroke-width:0.345;stroke-linecap:round;stroke-linejoin:round;stroke-dasharray:none;stroke-opacity:1"
         id="rect91"
         width="7.4608884"
         height="7.4608884"
         x="143.00989"
         y="170.63918"
         transform="matrix(0,1,1,0,0,0)" /></g></g></svg>
